<svg width="227" height="64" viewBox="0 0 227 64" fill="none" xmlns="http://www.w3.org/2000/svg">
<path d="M25.5612 22.2836C25.0076 23.1392 24.4791 24.02 23.9255 24.926C23.3718 25.8319 22.8434 26.7127 22.2897 27.5683C21.9626 28.122 21.6354 28.6756 21.3335 29.1789C21.0315 29.7074 20.7043 30.2107 20.3772 30.7392C20.201 30.4372 19.9997 30.1352 19.7984 29.8081C19.597 29.4809 19.4209 29.1789 19.2196 28.8266C18.6408 27.8955 18.062 26.9644 17.5083 26.0333C16.9547 25.1021 16.3759 24.1459 15.7971 23.1896C15.1931 22.1075 14.5388 21.0253 13.8845 19.9936C13.8593 19.9684 13.8342 19.9181 13.8342 19.8426C13.5322 19.4148 13.1799 19.0624 12.7521 18.7605C12.3242 18.4836 11.8461 18.2823 11.3176 18.1313C10.7892 18.0055 10.2607 17.9803 9.73221 18.0307C9.20374 18.1062 8.70043 18.2572 8.24746 18.4836C7.26601 19.0121 6.63687 19.7671 6.33489 20.7234C6.0329 21.73 6.1839 22.6863 6.7627 23.6174C7.01435 24.02 7.24084 24.4227 7.46733 24.8253C7.69382 25.228 7.92031 25.6306 8.17196 26.0333C8.7256 26.8889 9.25407 27.7697 9.80771 28.6756C10.3613 29.5816 10.8898 30.4624 11.3931 31.3683C11.9719 32.3246 12.5507 33.2809 13.1044 34.1868C13.658 35.0928 14.2117 36.0491 14.7653 37.0054C15.0673 37.4332 15.3189 37.861 15.5454 38.2636C15.7719 38.6914 16.0236 39.0941 16.2752 39.5471V50.4688C16.2752 51.1735 16.4765 51.8278 16.8792 52.4066L14.2368 53.1364C9.90837 53.7655 5.78125 51.1735 4.44749 47.0212C3.44087 43.9007 2.71108 40.1762 2.00645 36.7034V36.6782C2.00645 36.653 2.00645 36.653 2.00645 36.6279C-1.64253 16.3949 4.74947 7.23472 18.4143 12.6956C22.2394 14.3314 25.8632 16.2943 29.1347 18.2823C28.7572 18.4081 28.3798 18.5843 28.0526 18.8108C27.6248 19.0876 27.2725 19.4399 27.0208 19.8929L25.5612 22.2836Z" fill="#FF0000"/>
<path d="M39.6293 35.4193C36.1061 39.0683 30.3432 44.2775 24.5049 48.4046V39.3199C24.6559 39.0934 24.7817 38.8669 24.8824 38.6404C24.983 38.4391 25.1089 38.1875 25.2598 37.961C25.8135 37.1054 26.342 36.2246 26.8956 35.3186C27.4492 34.4127 27.9777 33.5319 28.5313 32.6762C29.1101 31.72 29.6889 30.7637 30.2426 29.8577C30.7962 28.9518 31.375 27.9955 31.9538 27.0392C32.583 26.0074 33.2373 24.9253 33.9671 23.7929C33.9671 23.7677 33.9671 23.7425 33.9922 23.7174C34.0174 23.6922 34.0174 23.667 34.0174 23.6419C34.3949 23.0379 34.571 22.4339 34.5962 21.8048C36.1565 22.8869 37.5657 23.9187 38.824 24.875C42.2968 27.5677 42.6743 32.2736 39.6293 35.4193Z" fill="#FF0000"/>
<path d="M55.7855 24.3968C54.5524 22.761 57.3205 20.6723 58.6543 22.6855L63.1589 29.3795L67.6887 22.6604C69.0476 20.7981 71.8913 22.6604 70.5575 24.3716L64.7695 32.7769V38.0868C64.7695 40.3516 61.3722 40.3013 61.3722 38.0616V32.7769L55.7855 24.3968Z" fill="#FF0000"/>
<path d="M75.7917 39.6973C74.9612 39.2443 74.4579 38.3132 74.9612 37.2311L82.3347 22.8365C83.0393 21.4776 84.8764 21.4272 85.5055 22.8365L92.7532 37.2311C93.8101 39.2443 90.6896 40.8297 89.7836 38.8165L88.6512 36.5516H79.189L78.0817 38.8165C77.6539 39.6973 76.6977 39.8735 75.7917 39.6973ZM86.8141 33.1795L83.9201 26.8378L80.7744 33.1795H86.8141Z" fill="#FF0000"/>
<path d="M99.8999 25.7809C100.479 20.7981 108.003 19.8922 111.552 22.6352C113.288 24.0445 111.451 26.2842 109.916 25.1518C108.028 23.9438 103.7 23.3902 103.171 26.0577C102.467 30.2603 113.64 27.8445 113.464 34.6894C113.288 41.2073 103.826 41.3583 100.303 38.4391C99.447 37.7344 99.4721 36.6272 99.9503 35.9225C100.63 35.2431 101.36 35.0166 102.24 35.7464C104.354 37.1808 109.765 38.2629 110.142 34.6139C109.79 30.7888 99.1198 33.0788 99.8999 25.7809Z" fill="#FF0000"/>
<path d="M127.381 31.8458L124.94 34.5384V38.1371C124.94 40.2762 121.542 40.3013 121.542 38.1371C121.542 33.2047 121.542 28.4233 121.542 23.4908C121.542 21.3015 124.94 21.226 124.94 23.4908V30.0087L132.364 22.3332C133.27 21.4776 134.15 21.6789 134.805 22.3332C135.534 23.0379 135.534 23.9187 134.805 24.6233C133.295 26.41 131.508 28.0206 129.872 29.8074L135.887 37.0801C137.422 39.2192 134.15 40.7543 133.119 39.1185L127.381 31.8458Z" fill="#FF0000"/>
<path d="M147.212 38.0112C147.212 40.2509 143.789 40.3264 143.789 38.0615V23.4908C143.789 22.5848 144.494 21.9305 145.324 21.9305H152.144C158.662 21.9305 159.996 30.6629 154.56 32.8523L157.982 37.0046C159.316 38.9927 156.649 40.8801 155.113 38.9423L151.238 33.406H147.212V38.0112ZM147.212 30.4113H152.169C155.516 30.4113 155.717 25.0259 152.169 25.0259H147.212V30.4113Z" fill="#FF0000"/>
<path d="M165.934 39.6973C165.104 39.2443 164.601 38.3132 165.104 37.2311L172.477 22.8365C173.182 21.4776 175.019 21.4272 175.648 22.8365L182.896 37.2311C183.953 39.2443 180.832 40.8297 179.926 38.8165L178.794 36.5516H169.332L168.224 38.8165C167.797 39.6973 166.865 39.8735 165.934 39.6973ZM176.982 33.1795L174.088 26.8378L170.942 33.1795H176.982Z" fill="#FF0000"/>
<path d="M194.346 38.5397L187.576 24.3465C186.57 22.3081 189.615 20.6471 190.722 22.7862L193.012 27.9451L195.957 34.7146L198.851 27.9451L201.141 22.7862C202.172 20.8233 205.142 22.0564 204.261 24.1955L197.718 38.5397C197.139 40.1503 195.327 40.5278 194.346 38.5397Z" fill="#FF0000"/>
<path d="M209.823 39.6973C208.992 39.2443 208.489 38.3132 208.992 37.2311L216.366 22.8365C217.071 21.4776 218.908 21.4272 219.537 22.8365L226.784 37.2311C227.841 39.2443 224.721 40.8297 223.815 38.8165L222.682 36.5516H213.22L212.113 38.8165C211.71 39.6973 210.754 39.8735 209.823 39.6973ZM220.871 33.1795L217.977 26.8378L214.831 33.1795H220.871Z" fill="#FF0000"/>
</svg>
